<?xml version="1.0" encoding="UTF-8"?>
<svg width="21px" height="21px" viewBox="0 0 21 21" version="1.1" xmlns="http://www.w3.org/2000/svg" xmlns:xlink="http://www.w3.org/1999/xlink">
    <!-- Generator: sketchtool 62 (101010) - https://sketch.com -->
    <title>4C12FB8F-FE17-4D38-B822-0F20EDA59F74</title>
    <desc>Created with sketchtool.</desc>
    <g id="Prepaid-desktop" stroke="none" stroke-width="1" fill="none" fill-rule="evenodd">
        <g id="11_IR_Prepaid_Desktop_selectplan" transform="translate(-296.000000, -558.000000)" fill="#E71818">
            <g id="Group-8" transform="translate(104.000000, 383.000000)">
                <g id="Group-13" transform="translate(24.000000, 134.000000)">
                    <g id="Group-3" transform="translate(168.000000, 41.000000)">
                        <g id="icon/call/Red">
                            <g id="Group-35" transform="translate(1.737805, 1.750000)">
                                <path d="M4.92850936,5.40680601 C4.8718852,5.27132754 4.76612023,5.16590888 4.63067123,5.10997586 C4.49829872,5.05529883 4.34937965,5.05462897 4.21151934,5.11198543 C4.07740072,5.1688395 3.97271668,5.27509548 3.91625881,5.41291845 C3.86138076,5.54982036 3.86229539,5.69936581 3.91858697,5.83409069 C4.15930205,6.41066964 4.43818231,6.97326534 4.74749495,7.50596868 C5.05439628,8.03666246 5.40004484,8.55404285 5.77504484,9.04412658 C6.15087633,9.53362419 6.55838741,10.0000117 6.98618675,10.4301433 C7.41789406,10.8648802 7.88103154,11.2749998 8.36271114,11.6491983 C8.84746724,12.0260763 9.36132533,12.3744017 9.88981757,12.6845452 C10.4208043,12.9966983 10.9793131,13.2775357 11.5500448,13.5194376 C11.6174783,13.5479065 11.6887366,13.5622247 11.7617411,13.5622247 C11.9827499,13.5622247 12.1811424,13.4296768 12.2672012,13.224617 L12.2672843,13.2244495 C12.3237422,13.0893897 12.3245737,12.9395931 12.2691136,12.8009328 C12.213404,12.6652031 12.10872,12.5591146 11.9743519,12.5021768 C11.4491856,12.2799519 10.9335814,12.0207175 10.4418408,11.7318419 C9.9484373,11.4415428 9.47407477,11.119928 9.03205704,10.7761242 C8.58396945,10.4274639 8.15608697,10.0486601 7.76013353,9.64984428 C7.36551047,9.25320553 6.98951269,8.82248782 6.6427832,8.37008352 C6.29572112,7.91650696 5.97643065,7.43873184 5.6936424,6.94973663 C5.40686302,6.45488017 5.14935194,5.93582514 4.92850936,5.40680601" id="Fill-9"></path>
                                <path d="M17.3376834,14.0301864 L17.3364362,14.0180452 C17.2981879,13.6802701 17.1150947,13.3853658 16.8373785,13.2108682 L14.0918963,11.4089543 C13.9696679,11.3279854 13.8231601,11.3002701 13.6803941,11.3307486 C13.5372122,11.360306 13.4140692,11.4449591 13.3335814,11.5689663 C13.2534262,11.6926385 13.2260703,11.8403419 13.2565027,11.9847797 C13.2870182,12.1292175 13.3714972,12.2527223 13.4934761,12.3319328 L16.2500171,14.145318 L14.355893,16.0526505 C14.0890692,16.3212629 13.6981047,16.4260117 13.3346624,16.3257845 C7.42097056,14.7016338 2.74536081,9.99287778 1.13236191,4.0369328 C1.03291624,3.67068878 1.13676879,3.27672945 1.40276103,3.00945672 L3.30669673,1.11108352 L5.09779983,3.87800935 C5.26284972,4.13196868 5.60259473,4.20389452 5.85486746,4.03852371 C5.97726214,3.95864333 6.06140848,3.83522227 6.09184085,3.69103567 C6.12235637,3.54651414 6.09516679,3.39889452 6.01526103,3.27522227 L4.23471779,0.52554524 C4.05428542,0.234660072 3.75852599,0.0457605509 3.42277211,0.00716007245 C3.08202932,-0.0311892098 2.75666901,0.0858682064 2.51853154,0.325676819 L0.628814242,2.22865529 C0.084773222,2.77651414 -0.127172454,3.58067682 0.0756268806,4.32723184 C1.78973442,10.6575428 6.76002267,15.6628778 13.0469683,17.3899352 C13.2310593,17.4401744 13.4203054,17.4655452 13.6093852,17.4655452 C14.1771236,17.4655452 14.7316413,17.234696 15.1305881,16.832196 L17.0203054,14.9291338 C17.2567799,14.6910835 17.3720238,14.3640261 17.3376834,14.0301864" id="Fill-11"></path>
                            </g>
                        </g>
                    </g>
                </g>
            </g>
        </g>
    </g>
</svg>