<?xml version="1.0" encoding="UTF-8"?>
<svg width="24px" height="24px" viewBox="0 0 24 24" version="1.1" xmlns="http://www.w3.org/2000/svg" xmlns:xlink="http://www.w3.org/1999/xlink">
    <!-- Generator: sketchtool 62 (101010) - https://sketch.com -->
    <title>964DC5C4-159B-4CBA-B5D8-7B2A8B5D0918</title>
    <desc>Created with sketchtool.</desc>
    <g id="Prepaid-desktop" stroke="none" stroke-width="1" fill="none" fill-rule="evenodd">
        <g id="12_IR_Prepaid_Desktop_selectplan" transform="translate(-128.000000, -757.000000)" fill="#E61818" fill-rule="nonzero">
            <g id="Group-8" transform="translate(104.000000, 383.000000)">
                <g id="Group-15" transform="translate(24.000000, 373.000000)">
                    <g id="icon/info" transform="translate(0.000000, 1.000000)">
                        <g id="a-link" transform="translate(12.000000, 12.000000) scale(-1, 1) rotate(-180.000000) translate(-12.000000, -12.000000) translate(1.090909, 1.090909)">
                            <g id="a" transform="translate(0.000000, -0.000000)">
                                <g id="Group">
                                    <path d="M18.4687787,18.4684406 C16.3564383,20.580781 13.5872034,21.6366131 10.8186446,21.6366131 C8.05008585,21.6366131 5.28085091,20.580781 3.16851055,18.4684406 C-1.05617018,14.2437599 -1.05617018,7.39352936 3.16851055,3.16884863 C5.28085091,1.0558321 8.05008585,-1.25022182e-15 10.8186446,-1.25022182e-15 C13.5872034,-1.25022182e-15 16.3564383,1.0558321 18.4687787,3.16884863 C22.6934594,7.39352936 22.6934594,14.2437599 18.4687787,18.4684406 Z M17.2733185,4.36397078 C15.549097,2.63974929 13.2568967,1.69041322 10.8186446,1.69041322 C8.3803926,1.69041322 6.08819226,2.64008737 4.36363269,4.36397078 C0.804974777,7.92296678 0.804974777,13.7139844 4.36363269,17.2726423 C6.08785418,18.9968638 8.3803926,19.9461999 10.8186446,19.9461999 C13.2568967,19.9461999 15.5494351,18.9965257 17.2736566,17.2726423 L17.2736566,17.2733185 C18.9972019,15.549097 19.946876,13.2565586 19.946876,10.8186446 C19.946876,8.38005451 18.9972019,6.08819226 17.2733185,4.36397078 Z" id="Shape"></path>
                                    <path d="M10.8186446,16.5653734 C9.94537716,16.5653734 9.2374321,15.8574284 9.2374321,14.984499 C9.2374321,14.1115696 9.94537716,13.4036245 10.8186446,13.4036245 C11.691574,13.4036245 12.3995191,14.1115696 12.3995191,14.984499 C12.3995191,15.8574284 11.691574,16.5653734 10.8186446,16.5653734 Z" id="Path"></path>
                                    <path d="M10.8186446,5.0705635 C11.6161167,5.0705635 12.2625956,5.71704238 12.2625956,6.51451448 L12.2625956,10.7652276 C12.2625956,11.5626997 11.6161167,12.2091785 10.8186446,12.2091785 C10.0211725,12.2091785 9.37469365,11.5626997 9.37469365,10.7652276 L9.37469365,6.51451448 C9.37469365,5.71704238 10.0211725,5.0705635 10.8186446,5.0705635 Z" id="Path"></path>
                                </g>
                            </g>
                        </g>
                    </g>
                </g>
            </g>
        </g>
    </g>
</svg>