<?xml version="1.0" encoding="UTF-8"?>
<svg width="24px" height="25px" viewBox="0 0 24 25" version="1.1" xmlns="http://www.w3.org/2000/svg" xmlns:xlink="http://www.w3.org/1999/xlink">
    <!-- Generator: sketchtool 62 (101010) - https://sketch.com -->
    <title>70B55D3B-7B6A-4954-8C4D-13E657CC78CB</title>
    <desc>Created with sketchtool.</desc>
    <g id="Prepaid-desktop" stroke="none" stroke-width="1" fill="none" fill-rule="evenodd">
        <g id="13_IR_Prepaid_Desktop_packdetails" transform="translate(-136.000000, -704.000000)" fill="#E71818" fill-rule="nonzero">
            <g id="Group-15" transform="translate(104.000000, 383.000000)">
                <g id="Group-12">
                    <g id="Group-8">
                        <g id="Group-7" transform="translate(32.000000, 129.000000)">
                            <g id="Group-9-Copy" transform="translate(0.000000, 51.000000)">
                                <g id="icon/messages/Red-Copy" transform="translate(0.000000, 141.800000)">
                                    <g id="noun_messaging_1160281" transform="translate(2.000000, 3.000000)">
                                        <g id="Group">
                                            <path d="M0.630630631,11.75256 C0.978918919,11.75256 1.26126126,11.4705 1.26126126,11.12256 L1.26126126,1.95354 C1.26126126,1.59066 1.55567568,1.29546 1.91765766,1.29546 L19.1891892,1.29546 C19.5374775,1.29546 19.8198198,1.0134 19.8198198,0.66546 C19.8198198,0.31752 19.5374775,0.03546 19.1891892,0.03546 L1.91765766,0.03546 C0.86018018,0.03546 0,0.89586 0,1.95354 L0,11.12256 C0,11.4705 0.282342342,11.75256 0.630630631,11.75256 Z" id="Path"></path>
                                            <path d="M19.1891892,2.91546 C18.8409009,2.91546 18.5585586,3.19752 18.5585586,3.54546 L18.5585586,12.71448 C18.5585586,13.07736 18.2641441,13.37256 17.9021622,13.37256 L8.55855856,13.37256 C8.54522523,13.37256 8.53279279,13.37562 8.51963964,13.37652 C8.49207207,13.37814 8.4645045,13.3794 8.43711712,13.3848 C8.41621622,13.38894 8.39657658,13.39632 8.37657658,13.40244 C8.3572973,13.4082 8.33783784,13.41252 8.31891892,13.42026 C8.29333333,13.43088 8.26972973,13.44474 8.24594595,13.45842 C8.23441441,13.46508 8.22198198,13.4694 8.21063063,13.47696 L4.14414414,16.16274 L4.14414414,14.00256 C4.14414414,13.65462 3.8618018,13.37256 3.51351351,13.37256 L0.630630631,13.37256 C0.282342342,13.37256 0,13.65462 0,14.00256 C0,14.3505 0.282342342,14.63256 0.630630631,14.63256 L2.88288288,14.63256 L2.88288288,17.33454 C2.88288288,17.56638 3.01045045,17.77968 3.21495495,17.88948 C3.30846847,17.93952 3.41117117,17.96454 3.51351351,17.96454 C3.63513514,17.96454 3.75621622,17.92962 3.86144144,17.86014 L8.74846847,14.63256 L17.9023423,14.63256 C18.9596396,14.63256 19.82,13.77216 19.82,12.71448 L19.82,3.54546 C19.82,3.19752 19.5374775,2.91546 19.1891892,2.91546 Z" id="Path"></path>
                                        </g>
                                    </g>
                                </g>
                            </g>
                        </g>
                    </g>
                </g>
            </g>
        </g>
    </g>
</svg>