<?xml version="1.0" encoding="UTF-8"?>
<svg width="21px" height="21px" viewBox="0 0 21 21" version="1.1" xmlns="http://www.w3.org/2000/svg" xmlns:xlink="http://www.w3.org/1999/xlink">
    <!-- Generator: sketchtool 62 (101010) - https://sketch.com -->
    <title>212B24B4-2099-4403-81EC-4C31858CE461</title>
    <desc>Created with sketchtool.</desc>
    <g id="Prepaid-desktop" stroke="none" stroke-width="1" fill="none" fill-rule="evenodd">
        <g id="11_IR_Prepaid_Desktop_selectplan" transform="translate(-128.000000, -560.000000)" fill="#E71818">
            <g id="Group-8" transform="translate(104.000000, 383.000000)">
                <g id="Group-13" transform="translate(24.000000, 134.000000)">
                    <g id="Group-2" transform="translate(0.000000, 41.000000)">
                        <g id="icon/data/Red" transform="translate(0.000000, 2.090909)">
                            <g id="Fill-54" transform="translate(1.739659, 1.742424)">
                                <path d="M16.4245793,5.54371338 C16.3687271,5.40573673 16.3076309,5.26917735 16.2442041,5.13411863 C17.4733692,2.91757158 17.6926162,1.31379095 16.8701485,0.489766016 C16.0478473,-0.333842075 14.4466948,-0.114580077 12.2338314,1.11645516 C12.0987373,1.05292754 11.9623114,0.99223448 11.8240543,0.936043383 C11.3254629,0.73353867 10.8043142,0.578971467 10.275258,0.476343513 C9.22655138,0.273088475 8.13206425,0.273171844 7.08402353,0.476343513 C6.55480084,0.578971467 6.03381864,0.73353867 5.53522727,0.936210122 C5.02714685,1.14254983 4.53796129,1.40057869 4.08090533,1.70262668 C3.61211291,2.01267815 3.17112175,2.37341833 2.77016772,2.77484286 C2.36979635,3.17618402 2.00954536,3.61770932 1.69990264,4.08741354 C1.39791775,4.54552939 1.14054805,5.03565916 0.934702232,5.54388012 C0.732685329,6.04293043 0.578196918,6.56482401 0.475565339,7.09522129 C0.374099082,7.62019954 0.322575199,8.1580167 0.322575199,8.69333278 C0.322575199,9.22864886 0.374099082,9.76638266 0.475565339,10.2914443 C0.578196918,10.8218416 0.732685329,11.3436518 0.934702232,11.8427854 C0.990720929,11.9810956 1.0511512,12.117655 1.11482773,12.2530472 C-0.1142541,14.469094 -0.333501123,16.0727079 0.489133017,16.8967328 C0.81650528,17.224542 1.26681902,17.3876963 1.82983605,17.3876963 C2.73670633,17.3876963 3.93648863,16.9643455 5.3850672,16.1246471 C5.38606604,16.1241469 5.38681518,16.1234799 5.38781403,16.1229797 C5.39047762,16.1213957 5.39314121,16.1198117 5.39563833,16.1182277 C7.25707385,15.0377579 9.3714675,13.3516915 11.3510167,11.3688294 C13.0157625,9.7016045 14.4695851,7.93925492 15.5321923,6.31171396 C15.6440632,6.63568816 15.7338763,6.96841615 15.7988846,7.30497915 C15.8869496,7.76126087 15.9316481,8.22821389 15.9316481,8.69299931 C15.9316481,9.15778472 15.8869496,9.62498785 15.7988846,10.0808527 C15.7100704,10.5408861 15.5760584,10.9936663 15.4008439,11.4265211 C15.2224664,11.8669626 14.9993072,12.2918974 14.7374427,12.6891534 C14.4690024,13.0965806 14.1559469,13.4800806 13.8074324,13.8291491 C13.4599167,14.1775506 13.076942,14.4909368 12.6694122,14.7603039 C12.2731194,15.0225846 11.8491919,15.2459317 11.4089499,15.4247595 C10.9766154,15.6001691 10.5244704,15.7345609 10.0653336,15.8234328 C9.56982197,15.9193912 9.06332305,15.9624099 8.55632472,15.9555736 C8.25508897,15.9440686 7.9998002,16.1936771 7.99447301,16.4991433 C7.98906259,16.8046928 8.23203224,17.0565523 8.53709691,17.061888 C8.58445892,17.062805 8.63198742,17.0631385 8.67934943,17.0631385 C9.21389931,17.0631385 9.7506966,17.0116161 10.2749251,16.9099886 C10.8043142,16.8073606 11.3252964,16.6526267 11.8238046,16.4502887 C12.331552,16.243949 12.8208208,15.9860869 13.2780432,15.683622 C13.747668,15.3731537 14.1884927,15.0124135 14.5886144,14.6115726 C14.9894852,14.2099813 15.3496529,13.768456 15.6592124,13.2987518 C15.9613638,12.8404692 16.2187335,12.3504228 16.4244128,11.8422852 C16.6264297,11.3433183 16.7809181,10.8215081 16.8835497,10.2909441 C16.985016,9.76579907 17.0363734,9.22798191 17.0363734,8.69299931 C17.0363734,8.1580167 16.985016,7.62019954 16.8835497,7.09488781 C16.7810846,6.56482401 16.6265962,6.04293043 16.4245793,5.54371338 M1.27039822,16.114476 C0.97224225,15.8158462 1.04191186,14.8764378 1.76541039,13.3936264 C2.0600704,13.8273983 2.39643229,14.23766 2.7703342,14.6119894 C3.14348697,14.9857353 3.5529312,15.3227151 3.98693043,15.6185104 C2.50630551,16.3432422 1.56872067,16.4131059 1.27039822,16.114476 M10.569918,10.5865726 C8.74685488,12.4125332 6.81541679,13.9715443 5.09739912,15.0089954 C4.95889227,14.9300444 4.82205016,14.8481755 4.68986935,14.7606374 C4.28242281,14.4911869 3.89953128,14.1777173 3.55184911,13.8294826 C3.20333458,13.4804141 2.89061208,13.0967473 2.62200534,12.6896536 C2.36014083,12.2920641 2.13698165,11.8672961 1.95860414,11.4268546 C1.78338964,10.9941665 1.64937761,10.5412195 1.56056342,10.0811862 C1.47224865,9.62523796 1.42763347,9.15828494 1.42763347,8.69333278 C1.42763347,8.22838063 1.47224865,7.76126087 1.56056342,7.30547937 C1.64937761,6.84544602 1.78338964,6.39266583 1.95860414,5.95981096 C2.13714813,5.51911936 2.3603073,5.09426797 2.62200534,4.69717866 C2.89061208,4.28950141 3.20366753,3.90591797 3.55168264,3.55734975 C3.9000307,3.20861479 4.28292223,2.89522854 4.68986935,2.6261949 C5.08599561,2.36424767 5.51008961,2.14056709 5.95049811,1.96173934 C6.38291583,1.78607963 6.83497756,1.6518546 7.29411445,1.56289926 C8.20456393,1.38648923 9.15505055,1.38632249 10.0654168,1.56289926 C10.5244704,1.6518546 10.9765322,1.78599626 11.4091164,1.9615726 C11.8496913,2.14056709 12.2737853,2.36408094 12.6697451,2.6261949 C12.9756422,2.82836613 13.2697195,3.05696552 13.5434037,3.30515677 C13.7695594,3.51024593 14.1189064,3.49298843 14.3235869,3.26664002 C14.5284338,3.0400415 14.5111205,2.69022274 14.285048,2.4850502 C13.998462,2.22477037 13.6916493,1.98466597 13.3731002,1.76773832 C14.8534754,1.04325666 15.7907273,0.973726433 16.0890498,1.27218953 C16.4404776,1.62425927 16.2842412,2.8637982 15.143058,4.83915706 C14.1111653,6.62518359 12.4871225,8.66632104 10.569918,10.5865726" id="Fill-53"></path>
                            </g>
                        </g>
                    </g>
                </g>
            </g>
        </g>
    </g>
</svg>