<?xml version="1.0" encoding="UTF-8"?>
<svg width="24px" height="25px" viewBox="0 0 24 25" version="1.1" xmlns="http://www.w3.org/2000/svg" xmlns:xlink="http://www.w3.org/1999/xlink">
    <!-- Generator: sketchtool 62 (101010) - https://sketch.com -->
    <title>DDEA6E72-2645-4840-ABF0-3138CAEF9377</title>
    <desc>Created with sketchtool.</desc>
    <defs>
        <rect id="path-1" x="0" y="0" width="24" height="24"></rect>
        <rect id="path-3" x="0" y="0" width="26" height="26"></rect>
    </defs>
    <g id="Prepaid-desktop" stroke="none" stroke-width="1" fill="none" fill-rule="evenodd">
        <g id="13_IR_Prepaid_Desktop_packdetails" transform="translate(-136.000000, -563.000000)">
            <g id="Group-15" transform="translate(104.000000, 383.000000)">
                <g id="Group-12">
                    <g id="Group-8">
                        <g id="Group-7" transform="translate(32.000000, 129.000000)">
                            <g id="Group-9-Copy" transform="translate(0.000000, 51.000000)">
                                <g id="icon/data/Red" transform="translate(0.000000, 0.800000)">
                                    <g id="Group-22">
                                        <mask id="mask-2" fill="white">
                                            <use xlink:href="#path-1"></use>
                                        </mask>
                                        <g id="Mask"></g>
                                        <g mask="url(#mask-2)" id="Group-21">
                                            <g transform="translate(12.000000, 12.000000) rotate(47.000000) translate(-12.000000, -12.000000) translate(-1.000000, -1.000000)">
                                                <g transform="translate(0.000000, -0.000000)">
                                                    <g id="noun_transfer_1562604">
                                                        <mask id="mask-4" fill="white">
                                                            <use xlink:href="#path-3"></use>
                                                        </mask>
                                                        <g id="Mask"></g>
                                                        <g mask="url(#mask-4)" id="Group">
                                                            <g transform="translate(12.953154, 13.500826) rotate(-45.000000) translate(-12.953154, -13.500826) translate(-2.546846, -1.499174)">
                                                                <g>
                                                                    <path d="M27.1641673,11.7382473 L20.6526129,5.67628524 C20.5267475,5.55713498 20.339357,5.52772279 20.1823844,5.60247972 C20.0254118,5.67723664 19.9317962,5.8404757 19.9474699,6.01210385 L20.1912182,9.24112899 L15.6035124,9.23253203 C15.4526463,9.23015676 15.3122013,9.30840847 15.2360665,9.4372617 C15.1599317,9.56611493 15.1599317,9.72555752 15.2360665,9.85441075 C15.3122013,9.98326398 15.4526463,10.0615157 15.6035124,10.0591404 L20.6352023,10.0676823 C20.7506983,10.0678914 20.8611318,10.0208114 20.9402866,9.93761868 C21.0194414,9.854426 21.0602586,9.74253976 21.0530483,9.62852107 L20.8615401,7.00226934 L26.2936375,12.056748 L21.1836278,17.4040632 L21.2271542,15.1221774 C21.2295361,15.0095703 21.1853592,14.900878 21.10484,14.8212371 C21.0243208,14.7415962 20.9144328,14.6979041 20.8005891,14.7002653 L10.9636026,14.812191 L10.7198543,11.531507 C10.7101954,11.3663889 10.6019601,11.2228613 10.444706,11.1666409 C10.2874519,11.1104206 10.1114557,11.1523319 9.99730062,11.273185 L4.01677487,17.5418349 C3.94035151,17.6216413 3.89921269,17.7282706 3.90227577,17.8381484 C3.90569479,17.9480261 3.95304874,18.0521015 4.03404618,18.1273648 L10.545609,24.1893214 C10.6698717,24.2994075 10.8484207,24.3258493 10.99983,24.256588 C11.1512393,24.1873268 11.2465012,24.035632 11.2421721,23.8706829 L11.1551192,20.7708187 L15.9256223,20.6244776 C16.0751775,20.62181 16.2118893,20.5402896 16.2841015,20.4107186 C16.3563137,20.2811475 16.3530153,20.123283 16.2754527,19.9967738 C16.19789,19.8702645 16.0578899,19.7944006 15.908351,19.7978472 L10.7113022,19.9528404 C10.4839549,19.9621729 10.3059404,20.1497057 10.3108306,20.374725 L10.3891922,22.9149328 L4.90485464,17.8087264 L9.95392734,12.5217276 L10.1541631,15.2685737 C10.1725535,15.4866291 10.3595575,15.6527324 10.5807088,15.647446 L20.3828741,15.5354927 L20.3219509,18.4631421 C20.3178519,18.6344286 20.4210075,18.7904614 20.5812917,18.8554201 C20.7415758,18.9203787 20.9257595,18.8807963 21.044343,18.7559071 L27.1815779,12.3236945 C27.2683048,12.2341999 27.3098449,12.1109283 27.2947468,11.9878621 C27.2820501,11.8921784 27.23585,11.8038334 27.1641673,11.7382473 Z" id="Path" stroke="#E60000" stroke-width="0.3" fill="#E60000" fill-rule="nonzero" transform="translate(15.600034, 14.928162) rotate(-45.000000) translate(-15.600034, -14.928162) "></path>
                                                                </g>
                                                            </g>
                                                        </g>
                                                    </g>
                                                </g>
                                            </g>
                                        </g>
                                    </g>
                                </g>
                            </g>
                        </g>
                    </g>
                </g>
            </g>
        </g>
    </g>
</svg>