<?xml version="1.0" encoding="UTF-8"?>
<svg width="24px" height="25px" viewBox="0 0 24 25" version="1.1" xmlns="http://www.w3.org/2000/svg" xmlns:xlink="http://www.w3.org/1999/xlink">
    <!-- Generator: sketchtool 62 (101010) - https://sketch.com -->
    <title>6BCA7B39-CE48-4BF8-926C-5BE4B9FB5A13</title>
    <desc>Created with sketchtool.</desc>
    <g id="Prepaid-desktop" stroke="none" stroke-width="1" fill="none" fill-rule="evenodd">
        <g id="14_IR_Prepaid_Desktop_packdetailss" transform="translate(-136.000000, -597.000000)" fill="#E71818">
            <g id="Group-15" transform="translate(104.000000, 383.000000)">
                <g id="Group-12">
                    <g id="Group-8">
                        <g id="Group-7" transform="translate(32.000000, 127.000000)">
                            <g id="Group-9-Copy" transform="translate(0.000000, 51.000000)">
                                <g id="icon/incoming-call/Red" transform="translate(0.000000, 36.800000)">
                                    <g id="Group-35" transform="translate(2.000000, 2.000000)">
                                        <path d="M5.67210902,6.17920686 C5.60694156,6.02437433 5.48521907,5.90389586 5.3293339,5.83997241 C5.17698941,5.77748438 5.00560185,5.77671883 4.84694156,5.84226906 C4.69258749,5.90724514 4.57210902,6.02868055 4.50713295,6.18619251 C4.44397505,6.34265184 4.44502768,6.51356093 4.50981237,6.66753222 C4.78684586,7.32647959 5.1078028,7.9694461 5.46378366,8.57824993 C5.81698941,9.1847571 6.21478845,9.77604897 6.6463674,10.3361447 C7.07890328,10.8955705 7.5478985,11.4285849 8.04024299,11.9201638 C8.5370851,12.4170059 9.07009945,12.885714 9.62445352,13.3133695 C10.1823483,13.7440872 10.7737358,14.1421734 11.3819655,14.4966231 C11.993066,14.8533695 12.6358411,15.1743265 13.2926832,15.4507858 C13.3702908,15.4833217 13.4523004,15.4996853 13.5363195,15.4996853 C13.7906736,15.4996853 14.018999,15.3482021 14.118042,15.113848 L14.1181377,15.1136566 C14.1831138,14.9593026 14.1840707,14.7881064 14.120243,14.6296375 C14.0561282,14.4745179 13.9356497,14.3532738 13.7810085,14.2882021 C13.1766066,14.0342308 12.5832095,13.7379628 12.0172765,13.4078193 C11.4494296,13.076049 10.9034966,12.7084892 10.3947884,12.3155705 C9.87909467,11.9171016 9.38665448,11.4841829 8.9309607,11.0283935 C8.47679802,10.575092 8.04407074,10.0828432 7.64502768,9.56580973 C7.24560185,9.04743653 6.87813773,8.50140782 6.55268319,7.94255615 C6.22263534,7.37700591 5.9262717,6.78380016 5.67210902,6.17920686" id="Fill-9"></path>
                                        <path d="M19.9535444,16.0344987 L19.952109,16.0206231 C19.9080899,15.6345944 19.6973722,15.2975609 19.377755,15.0981351 L16.218042,13.0388049 C16.0773722,12.9462691 15.9087597,12.9145944 15.7444535,12.949427 C15.5796688,12.9832069 15.4379463,13.0799533 15.3453148,13.2216758 C15.253066,13.3630155 15.2215827,13.5318193 15.2566066,13.6968911 C15.2917262,13.8619628 15.3889511,14.0031112 15.5293339,14.0936375 L18.7017741,16.1660777 L16.5218698,18.3458863 C16.2147884,18.6528719 15.7648363,18.7725849 15.3465588,18.6580394 C8.54062577,16.8018672 3.15957314,11.4204317 1.3032095,4.61363749 C1.18875974,4.19507289 1.30828127,3.74483366 1.61440567,3.43937911 L3.80560185,1.26980973 L5.86694156,4.43201069 C6.05689371,4.72224993 6.4478985,4.80445088 6.73823342,4.61545567 C6.87909467,4.5241638 6.97593677,4.38311117 7.0109607,4.21832648 C7.04608031,4.05315902 7.01478845,3.88445088 6.92282673,3.74311117 L4.87364012,0.600623131 C4.66598462,0.26818294 4.32560185,0.0522977725 3.93919036,0.00818293994 C3.54703725,-0.0356448113 3.17258749,0.0981350931 2.89852051,0.372202079 L0.72368797,2.54703461 C0.0975635678,3.17315902 -0.146359877,4.09220208 0.087037252,4.94540782 C2.05976452,12.180049 7.77995591,17.9004317 15.0154583,19.8742116 C15.2273243,19.9316279 15.4451234,19.9606231 15.662731,19.9606231 C16.3161282,19.9606231 16.95431,19.6967954 17.4134487,19.2367954 L19.5882813,17.0618672 C19.8604344,16.7898097 19.993066,16.4160298 19.9535444,16.0344987" id="Fill-11"></path>
                                    </g>
                                    <path d="M19.397,5.16875 C19.172,4.94375 18.809,4.94375 18.584,5.16875 L14.15,9.60275 L14.15,7.20975 C14.15,6.89275 13.893,6.63475 13.575,6.63475 C13.257,6.63475 13,6.89275 13,7.20975 L13,10.96775 C13,10.97175 13.002,10.97575 13.002,10.97975 C13.002,10.98275 13,10.98575 13,10.98975 C13,11.30775 13.257,11.56475 13.575,11.56475 L17.333,11.56475 C17.65,11.56475 17.908,11.30775 17.908,10.98975 C17.908,10.67275 17.65,10.41575 17.333,10.41575 L14.964,10.41575 L19.397,5.98175 C19.622,5.75775 19.622,5.39375 19.397,5.16875" id="Fill-1"></path>
                                </g>
                            </g>
                        </g>
                    </g>
                </g>
            </g>
        </g>
    </g>
</svg>